<?xml version="1.0" encoding="UTF-8" standalone="no"?>
<!DOCTYPE svg PUBLIC "-//W3C//DTD SVG 1.1//EN"
 "http://www.w3.org/Graphics/SVG/1.1/DTD/svg11.dtd">
<!-- Generated by graphviz version 2.40.1 (20161225.0304)
 -->
<!-- Title: G Pages: 1 -->
<svg width="964pt" height="404pt"
 viewBox="0.00 0.00 964.00 404.00" xmlns="http://www.w3.org/2000/svg" xmlns:xlink="http://www.w3.org/1999/xlink">
<g id="graph0" class="graph" transform="scale(1 1) rotate(0) translate(4 400)">
<title>G</title>
<polygon fill="#ffffff" stroke="transparent" points="-4,4 -4,-400 960,-400 960,4 -4,4"/>
<!-- 0 -->
<g id="node1" class="node">
<title>0</title>
<polygon fill="none" stroke="#ff0000" points="384,-108 286,-108 286,-72 384,-72 384,-108"/>
<text text-anchor="middle" x="335" y="-86.3" font-family="Times,serif" font-size="14.00" fill="#000000">PROJECTION</text>
</g>
<!-- 16 -->
<g id="node2" class="node">
<title>16</title>
<polygon fill="none" stroke="#ff0000" points="370.5,-36 299.5,-36 299.5,0 370.5,0 370.5,-36"/>
<text text-anchor="middle" x="335" y="-14.3" font-family="Times,serif" font-size="14.00" fill="#000000">customer;</text>
</g>
<!-- 0&#45;&gt;16 -->
<g id="edge1" class="edge">
<title>0&#45;&gt;16</title>
<path fill="none" stroke="#000000" d="M335,-71.8314C335,-64.131 335,-54.9743 335,-46.4166"/>
<polygon fill="#000000" stroke="#000000" points="338.5001,-46.4132 335,-36.4133 331.5001,-46.4133 338.5001,-46.4132"/>
</g>
<!-- 1 -->
<g id="node3" class="node">
<title>1</title>
<polygon fill="none" stroke="#000000" points="492,-108 402,-108 402,-72 492,-72 492,-108"/>
<text text-anchor="middle" x="447" y="-86.3" font-family="Times,serif" font-size="14.00" fill="#000000">SELECTION</text>
</g>
<!-- 17 -->
<g id="node4" class="node">
<title>17</title>
<polygon fill="none" stroke="#000000" points="480.5,-36 413.5,-36 413.5,0 480.5,0 480.5,-36"/>
<text text-anchor="middle" x="447" y="-14.3" font-family="Times,serif" font-size="14.00" fill="#000000">customer</text>
</g>
<!-- 1&#45;&gt;17 -->
<g id="edge2" class="edge">
<title>1&#45;&gt;17</title>
<path fill="none" stroke="#000000" d="M447,-71.8314C447,-64.131 447,-54.9743 447,-46.4166"/>
<polygon fill="#000000" stroke="#000000" points="450.5001,-46.4132 447,-36.4133 443.5001,-46.4133 450.5001,-46.4132"/>
</g>
<!-- 2 -->
<g id="node5" class="node">
<title>2</title>
<polygon fill="none" stroke="#ff0000" points="379,-180 325,-180 325,-144 379,-144 379,-180"/>
<text text-anchor="middle" x="352" y="-158.3" font-family="Times,serif" font-size="14.00" fill="#000000">JOIN</text>
</g>
<!-- 2&#45;&gt;0 -->
<g id="edge4" class="edge">
<title>2&#45;&gt;0</title>
<path fill="none" stroke="#000000" d="M347.7102,-143.8314C345.892,-136.131 343.7301,-126.9743 341.7095,-118.4166"/>
<polygon fill="#000000" stroke="#000000" points="345.0519,-117.3414 339.3476,-108.4133 338.2392,-118.95 345.0519,-117.3414"/>
</g>
<!-- 2&#45;&gt;1 -->
<g id="edge3" class="edge">
<title>2&#45;&gt;1</title>
<path fill="none" stroke="#000000" d="M375.9725,-143.8314C387.7861,-134.8779 402.1972,-123.9558 414.9435,-114.2955"/>
<polygon fill="#000000" stroke="#000000" points="417.1795,-116.9925 423.0352,-108.1628 412.9514,-111.4137 417.1795,-116.9925"/>
</g>
<!-- 3 -->
<g id="node6" class="node">
<title>3</title>
<polygon fill="none" stroke="#ff0000" points="608,-108 510,-108 510,-72 608,-72 608,-108"/>
<text text-anchor="middle" x="559" y="-86.3" font-family="Times,serif" font-size="14.00" fill="#000000">PROJECTION</text>
</g>
<!-- 18 -->
<g id="node7" class="node">
<title>18</title>
<polygon fill="none" stroke="#ff0000" points="586,-36 532,-36 532,0 586,0 586,-36"/>
<text text-anchor="middle" x="559" y="-14.3" font-family="Times,serif" font-size="14.00" fill="#000000">orders;</text>
</g>
<!-- 3&#45;&gt;18 -->
<g id="edge5" class="edge">
<title>3&#45;&gt;18</title>
<path fill="none" stroke="#000000" d="M559,-71.8314C559,-64.131 559,-54.9743 559,-46.4166"/>
<polygon fill="#000000" stroke="#000000" points="562.5001,-46.4132 559,-36.4133 555.5001,-46.4133 562.5001,-46.4132"/>
</g>
<!-- 4 -->
<g id="node8" class="node">
<title>4</title>
<polygon fill="none" stroke="#000000" points="724,-108 626,-108 626,-72 724,-72 724,-108"/>
<text text-anchor="middle" x="675" y="-86.3" font-family="Times,serif" font-size="14.00" fill="#000000">PROJECTION</text>
</g>
<!-- 19 -->
<g id="node9" class="node">
<title>19</title>
<polygon fill="none" stroke="#000000" points="702,-36 648,-36 648,0 702,0 702,-36"/>
<text text-anchor="middle" x="675" y="-14.3" font-family="Times,serif" font-size="14.00" fill="#000000">orders;</text>
</g>
<!-- 4&#45;&gt;19 -->
<g id="edge6" class="edge">
<title>4&#45;&gt;19</title>
<path fill="none" stroke="#000000" d="M675,-71.8314C675,-64.131 675,-54.9743 675,-46.4166"/>
<polygon fill="#000000" stroke="#000000" points="678.5001,-46.4132 675,-36.4133 671.5001,-46.4133 678.5001,-46.4132"/>
</g>
<!-- 5 -->
<g id="node10" class="node">
<title>5</title>
<polygon fill="none" stroke="#00ff00" points="840,-108 742,-108 742,-72 840,-72 840,-108"/>
<text text-anchor="middle" x="791" y="-86.3" font-family="Times,serif" font-size="14.00" fill="#000000">PROJECTION</text>
</g>
<!-- 20 -->
<g id="node11" class="node">
<title>20</title>
<polygon fill="none" stroke="#00ff00" points="818,-36 764,-36 764,0 818,0 818,-36"/>
<text text-anchor="middle" x="791" y="-14.3" font-family="Times,serif" font-size="14.00" fill="#000000">orders;</text>
</g>
<!-- 5&#45;&gt;20 -->
<g id="edge7" class="edge">
<title>5&#45;&gt;20</title>
<path fill="none" stroke="#000000" d="M791,-71.8314C791,-64.131 791,-54.9743 791,-46.4166"/>
<polygon fill="#000000" stroke="#000000" points="794.5001,-46.4132 791,-36.4133 787.5001,-46.4133 794.5001,-46.4132"/>
</g>
<!-- 6 -->
<g id="node12" class="node">
<title>6</title>
<polygon fill="none" stroke="#0000ff" points="956,-108 858,-108 858,-72 956,-72 956,-108"/>
<text text-anchor="middle" x="907" y="-86.3" font-family="Times,serif" font-size="14.00" fill="#000000">PROJECTION</text>
</g>
<!-- 21 -->
<g id="node13" class="node">
<title>21</title>
<polygon fill="none" stroke="#0000ff" points="934,-36 880,-36 880,0 934,0 934,-36"/>
<text text-anchor="middle" x="907" y="-14.3" font-family="Times,serif" font-size="14.00" fill="#000000">orders;</text>
</g>
<!-- 6&#45;&gt;21 -->
<g id="edge8" class="edge">
<title>6&#45;&gt;21</title>
<path fill="none" stroke="#000000" d="M907,-71.8314C907,-64.131 907,-54.9743 907,-46.4166"/>
<polygon fill="#000000" stroke="#000000" points="910.5001,-46.4132 907,-36.4133 903.5001,-46.4133 910.5001,-46.4132"/>
</g>
<!-- 7 -->
<g id="node14" class="node">
<title>7</title>
<polygon fill="none" stroke="#ff0000" points="705,-180 645,-180 645,-144 705,-144 705,-180"/>
<text text-anchor="middle" x="675" y="-158.3" font-family="Times,serif" font-size="14.00" fill="#000000">UNION</text>
</g>
<!-- 7&#45;&gt;3 -->
<g id="edge12" class="edge">
<title>7&#45;&gt;3</title>
<path fill="none" stroke="#000000" d="M645.7283,-143.8314C630.8912,-134.6221 612.6985,-123.3301 596.8138,-113.4706"/>
<polygon fill="#000000" stroke="#000000" points="598.6045,-110.4628 588.2623,-108.1628 594.913,-116.4102 598.6045,-110.4628"/>
</g>
<!-- 7&#45;&gt;4 -->
<g id="edge11" class="edge">
<title>7&#45;&gt;4</title>
<path fill="none" stroke="#000000" d="M675,-143.8314C675,-136.131 675,-126.9743 675,-118.4166"/>
<polygon fill="#000000" stroke="#000000" points="678.5001,-118.4132 675,-108.4133 671.5001,-118.4133 678.5001,-118.4132"/>
</g>
<!-- 7&#45;&gt;5 -->
<g id="edge10" class="edge">
<title>7&#45;&gt;5</title>
<path fill="none" stroke="#000000" d="M704.2717,-143.8314C719.1088,-134.6221 737.3015,-123.3301 753.1862,-113.4706"/>
<polygon fill="#000000" stroke="#000000" points="755.087,-116.4102 761.7377,-108.1628 751.3955,-110.4628 755.087,-116.4102"/>
</g>
<!-- 7&#45;&gt;6 -->
<g id="edge9" class="edge">
<title>7&#45;&gt;6</title>
<path fill="none" stroke="#000000" d="M705.3299,-152.5873C741.375,-141.4009 802.3547,-122.4761 847.8432,-108.359"/>
<polygon fill="#000000" stroke="#000000" points="849.077,-111.6409 857.5902,-105.3341 847.0022,-104.9554 849.077,-111.6409"/>
</g>
<!-- 8 -->
<g id="node15" class="node">
<title>8</title>
<polygon fill="none" stroke="#ff0000" points="90,-180 0,-180 0,-144 90,-144 90,-180"/>
<text text-anchor="middle" x="45" y="-158.3" font-family="Times,serif" font-size="14.00" fill="#000000">SELECTION</text>
</g>
<!-- 22 -->
<g id="node16" class="node">
<title>22</title>
<polygon fill="none" stroke="#ff0000" points="72,-108 18,-108 18,-72 72,-72 72,-108"/>
<text text-anchor="middle" x="45" y="-86.3" font-family="Times,serif" font-size="14.00" fill="#000000">book</text>
</g>
<!-- 8&#45;&gt;22 -->
<g id="edge13" class="edge">
<title>8&#45;&gt;22</title>
<path fill="none" stroke="#000000" d="M45,-143.8314C45,-136.131 45,-126.9743 45,-118.4166"/>
<polygon fill="#000000" stroke="#000000" points="48.5001,-118.4132 45,-108.4133 41.5001,-118.4133 48.5001,-118.4132"/>
</g>
<!-- 9 -->
<g id="node17" class="node">
<title>9</title>
<polygon fill="none" stroke="#000000" points="198,-180 108,-180 108,-144 198,-144 198,-180"/>
<text text-anchor="middle" x="153" y="-158.3" font-family="Times,serif" font-size="14.00" fill="#000000">SELECTION</text>
</g>
<!-- 23 -->
<g id="node18" class="node">
<title>23</title>
<polygon fill="none" stroke="#000000" points="180,-108 126,-108 126,-72 180,-72 180,-108"/>
<text text-anchor="middle" x="153" y="-86.3" font-family="Times,serif" font-size="14.00" fill="#000000">book</text>
</g>
<!-- 9&#45;&gt;23 -->
<g id="edge14" class="edge">
<title>9&#45;&gt;23</title>
<path fill="none" stroke="#000000" d="M153,-143.8314C153,-136.131 153,-126.9743 153,-118.4166"/>
<polygon fill="#000000" stroke="#000000" points="156.5001,-118.4132 153,-108.4133 149.5001,-118.4133 156.5001,-118.4132"/>
</g>
<!-- 10 -->
<g id="node19" class="node">
<title>10</title>
<polygon fill="none" stroke="#00ff00" points="306,-180 216,-180 216,-144 306,-144 306,-180"/>
<text text-anchor="middle" x="261" y="-158.3" font-family="Times,serif" font-size="14.00" fill="#000000">SELECTION</text>
</g>
<!-- 24 -->
<g id="node20" class="node">
<title>24</title>
<polygon fill="none" stroke="#00ff00" points="268,-108 214,-108 214,-72 268,-72 268,-108"/>
<text text-anchor="middle" x="241" y="-86.3" font-family="Times,serif" font-size="14.00" fill="#000000">book</text>
</g>
<!-- 10&#45;&gt;24 -->
<g id="edge15" class="edge">
<title>10&#45;&gt;24</title>
<path fill="none" stroke="#000000" d="M255.9532,-143.8314C253.7906,-136.0463 251.2147,-126.7729 248.8152,-118.1347"/>
<polygon fill="#000000" stroke="#000000" points="252.1636,-117.1117 246.1148,-108.4133 245.419,-118.9852 252.1636,-117.1117"/>
</g>
<!-- 11 -->
<g id="node21" class="node">
<title>11</title>
<polygon fill="none" stroke="#ff0000" points="236,-252 176,-252 176,-216 236,-216 236,-252"/>
<text text-anchor="middle" x="206" y="-230.3" font-family="Times,serif" font-size="14.00" fill="#000000">UNION</text>
</g>
<!-- 11&#45;&gt;8 -->
<g id="edge18" class="edge">
<title>11&#45;&gt;8</title>
<path fill="none" stroke="#000000" d="M175.7171,-220.4574C152.9021,-210.2543 121.1268,-196.0443 94.6178,-184.1893"/>
<polygon fill="#000000" stroke="#000000" points="96.0418,-180.9921 85.4842,-180.1047 93.1841,-187.3823 96.0418,-180.9921"/>
</g>
<!-- 11&#45;&gt;9 -->
<g id="edge17" class="edge">
<title>11&#45;&gt;9</title>
<path fill="none" stroke="#000000" d="M192.6259,-215.8314C186.5838,-207.6232 179.3237,-197.7606 172.6779,-188.7323"/>
<polygon fill="#000000" stroke="#000000" points="175.3011,-186.3918 166.5542,-180.4133 169.6637,-190.5415 175.3011,-186.3918"/>
</g>
<!-- 11&#45;&gt;10 -->
<g id="edge16" class="edge">
<title>11&#45;&gt;10</title>
<path fill="none" stroke="#000000" d="M219.8788,-215.8314C226.2136,-207.5386 233.8384,-197.557 240.7926,-188.4533"/>
<polygon fill="#000000" stroke="#000000" points="243.6452,-190.4847 246.9343,-180.4133 238.0825,-186.2353 243.6452,-190.4847"/>
</g>
<!-- 12 -->
<g id="node22" class="node">
<title>12</title>
<polygon fill="none" stroke="#ff0000" points="397,-252 307,-252 307,-216 397,-216 397,-252"/>
<text text-anchor="middle" x="352" y="-230.3" font-family="Times,serif" font-size="14.00" fill="#000000">SELECTION</text>
</g>
<!-- 12&#45;&gt;2 -->
<g id="edge19" class="edge">
<title>12&#45;&gt;2</title>
<path fill="none" stroke="#000000" d="M352,-215.8314C352,-208.131 352,-198.9743 352,-190.4166"/>
<polygon fill="#000000" stroke="#000000" points="355.5001,-190.4132 352,-180.4133 348.5001,-190.4133 355.5001,-190.4132"/>
</g>
<!-- 12&#45;&gt;7 -->
<g id="edge20" class="edge">
<title>12&#45;&gt;7</title>
<path fill="none" stroke="#000000" d="M397.2519,-223.9129C460.6047,-209.7909 574.728,-184.3517 635.0784,-170.8989"/>
<polygon fill="#000000" stroke="#000000" points="635.9933,-174.281 644.9923,-168.689 634.4703,-167.4487 635.9933,-174.281"/>
</g>
<!-- 13 -->
<g id="node23" class="node">
<title>13</title>
<polygon fill="none" stroke="#ff0000" points="297,-324 207,-324 207,-288 297,-288 297,-324"/>
<text text-anchor="middle" x="252" y="-302.3" font-family="Times,serif" font-size="14.00" fill="#000000">SELECTION</text>
</g>
<!-- 13&#45;&gt;11 -->
<g id="edge21" class="edge">
<title>13&#45;&gt;11</title>
<path fill="none" stroke="#000000" d="M240.3923,-287.8314C235.2022,-279.7079 228.9768,-269.9637 223.2575,-261.0118"/>
<polygon fill="#000000" stroke="#000000" points="226.0974,-258.9559 217.764,-252.4133 220.1985,-262.7246 226.0974,-258.9559"/>
</g>
<!-- 13&#45;&gt;12 -->
<g id="edge22" class="edge">
<title>13&#45;&gt;12</title>
<path fill="none" stroke="#000000" d="M277.2342,-287.8314C289.788,-278.7927 305.1283,-267.7476 318.6391,-258.0198"/>
<polygon fill="#000000" stroke="#000000" points="320.7036,-260.8463 326.7739,-252.1628 316.6134,-255.1655 320.7036,-260.8463"/>
</g>
<!-- 14 -->
<g id="node24" class="node">
<title>14</title>
<polygon fill="none" stroke="#ff0000" points="301,-396 203,-396 203,-360 301,-360 301,-396"/>
<text text-anchor="middle" x="252" y="-374.3" font-family="Times,serif" font-size="14.00" fill="#000000">PROJECTION</text>
</g>
<!-- 14&#45;&gt;13 -->
<g id="edge23" class="edge">
<title>14&#45;&gt;13</title>
<path fill="none" stroke="#000000" d="M252,-359.8314C252,-352.131 252,-342.9743 252,-334.4166"/>
<polygon fill="#000000" stroke="#000000" points="255.5001,-334.4132 252,-324.4133 248.5001,-334.4133 255.5001,-334.4132"/>
</g>
</g>
</svg>
